<svg xmlns="http://www.w3.org/2000/svg" version="1.1" xmlns:xlink="http://www.w3.org/1999/xlink" xmlns:svgjs="http://svgjs.dev/svgjs" width="1000" height="767" viewBox="0 0 1000 767"><g transform="matrix(1,0,0,1,0.470079615956422,0.3105272383173201)"><svg viewBox="0 0 322 247" data-background-color="#8abcd7" preserveAspectRatio="xMidYMid meet" height="767" width="1000" xmlns="http://www.w3.org/2000/svg" xmlns:xlink="http://www.w3.org/1999/xlink"><g id="tight-bounds" transform="matrix(1,0,0,1,-0.15136563633797095,-0.10000029708524494)"><svg viewBox="0 0 322.3027216162383 247.2" height="247.2" width="322.3027216162383"><g><svg viewBox="0 0 395.52000000000004 303.3562469150246" height="247.2" width="322.3027216162383"><g transform="matrix(1,0,0,1,0,154.76294496321202)"><svg viewBox="0 0 395.52000000000004 148.59330195181258" height="148.59330195181258" width="395.52000000000004"><g><svg viewBox="0 0 395.52000000000004 148.59330195181258" height="148.59330195181258" width="395.52000000000004"><g><svg viewBox="0 0 395.52000000000004 82.40525007964321" height="82.40525007964321" width="395.52000000000004"><g transform="matrix(1,0,0,1,0,0)"><svg width="395.52000000000004" viewBox="1.75 -32.099998474121094 156.94000244140625 32.69999694824219" height="82.40525007964321" data-palette-color="#ffffff"><path d="M26.9 0L25.3 0 6.5-27.9 6.5-1.6Q6.5-0.9 7.2-0.9L7.2-0.9 9.55-0.9 9.55 0 1.75 0 1.75-0.9 4.1-0.9Q4.8-0.9 4.8-1.6L4.8-1.6 4.8-30Q4.8-30.6 4.1-30.6L4.1-30.6 1.75-30.6 1.75-31.5 9.1-31.5 25.2-7.7 25.2-29.9Q25.2-30.6 24.5-30.6L24.5-30.6 22.15-30.6 22.15-31.5 29.95-31.5 29.95-30.6 27.6-30.6Q26.9-30.6 26.9-30L26.9-30 26.9 0ZM37.17-3.75Q33.2-8.1 33.2-15.75 33.2-23.4 37.17-27.75 41.15-32.1 47.52-32.1 53.9-32.1 57.87-27.75 61.85-23.4 61.85-15.75 61.85-8.1 57.87-3.75 53.9 0.6 47.52 0.6 41.15 0.6 37.17-3.75ZM40.32-26.75Q37.45-22.7 37.45-15.75 37.45-8.8 40.32-4.75 43.2-0.7 47.5-0.7 51.8-0.7 54.7-4.75 57.6-8.8 57.6-15.75 57.6-22.7 54.7-26.75 51.8-30.8 47.5-30.8 43.2-30.8 40.32-26.75ZM99.84 0L89.64 0 89.64-0.9 92-0.9Q92.69-0.9 92.69-1.5L92.69-1.5 92.69-27.05 82.25 0 80.55 0 70.09-26.3 70.09-1.6Q70.09-0.9 70.8-0.9L70.8-0.9 73.14-0.9 73.14 0 65.34 0 65.34-0.9 67.69-0.9Q68.39-0.9 68.39-1.6L68.39-1.6 68.39-30Q68.39-30.6 67.69-30.6L67.69-30.6 65.34-30.6 65.34-31.5 72.5-31.5 82.69-5.65 92.69-31.5 99.84-31.5 99.84-30.6 97.5-30.6Q96.8-30.6 96.8-29.9L96.8-29.9 96.8-1.5Q96.8-0.9 97.5-0.9L97.5-0.9 99.84-0.9 99.84 0ZM130.39-0.9L130.39 0 120.14 0 120.14-0.9 123.39-0.9 119.89-10.55 108.89-10.55 105.39-0.9 108.64-0.9 108.64 0 101.09 0 101.09-0.9 102.94-0.9Q103.64-0.9 103.89-1.6L103.89-1.6 114.89-31.5 116.59-31.5 127.59-1.6Q127.84-0.9 128.54-0.9L128.54-0.9 130.39-0.9ZM119.39-11.95L114.44-25.6 109.44-11.95 119.39-11.95ZM133.99-30.6L131.64-30.6 131.64-31.5 144.34-31.5Q150.69-31.5 154.69-27.3 158.69-23.1 158.69-15.75 158.69-8.4 154.69-4.2 150.69 0 144.34 0L144.34 0 131.64 0 131.64-0.9 133.99-0.9Q134.69-0.9 134.69-1.5L134.69-1.5 134.69-30Q134.69-30.6 133.99-30.6L133.99-30.6ZM144.34-30.1L144.34-30.1 138.79-30.1 138.79-1.4 144.34-1.4Q148.64-1.4 151.54-5.25 154.44-9.1 154.44-15.75 154.44-22.4 151.54-26.25 148.64-30.1 144.34-30.1Z" opacity="1" transform="matrix(1,0,0,1,0,0)" fill="#ffffff" class="undefined-text-0" data-fill-palette-color="primary" id="text-0"></path></svg></g></svg></g><g transform="matrix(1,0,0,1,0,101.85915189744506)"><svg viewBox="0 0 395.52000000000004 46.73415005436753" height="46.73415005436753" width="395.52000000000004"><g transform="matrix(1,0,0,1,0,0)"><svg width="395.52000000000004" viewBox="4.449999809265137 -38.849998474121094 413.79998779296875 48.89999771118164" height="46.73415005436753" data-palette-color="#ffffff"><path d="M28.95 0L4.45 0 4.45-36.25 28.25-36.25 28.25-31.3 9.95-31.3 9.95-20.7 26.25-20.7 26.25-15.65 9.95-15.65 9.95-5.05 28.95-5.05 28.95 0ZM39.05-11.05L39.05-11.05Q37.3-13.55 35.42-16 33.55-18.45 31.85-20.9L31.85-20.9 37.1-20.9Q37.7-19.9 38.27-19.1 38.85-18.3 39.42-17.55 40-16.8 40.57-16.03 41.15-15.25 41.8-14.3L41.8-14.3Q43.05-16.15 44.15-17.57 45.25-19 46.55-20.9L46.55-20.9 51.3-20.9Q50.4-19.5 49.55-18.32 48.7-17.15 47.85-15.98 47-14.8 46.12-13.58 45.25-12.35 44.3-10.85L44.3-10.85Q45.2-9.65 46.22-8.25 47.25-6.85 48.3-5.43 49.35-4 50.35-2.6 51.35-1.2 52.2 0L52.2 0 46.75 0Q45.35-1.95 44-3.6 42.65-5.25 41.25-7.15L41.25-7.15Q39.95-5.25 38.7-3.6 37.45-1.95 36.15 0L36.15 0 31.4 0Q33.3-2.85 35.25-5.58 37.2-8.3 39.05-11.05ZM73.25-10.5L73.25-10.5Q73.25-11.95 72.8-13.18 72.34-14.4 71.5-15.3 70.65-16.2 69.45-16.73 68.25-17.25 66.75-17.25L66.75-17.25Q65.25-17.25 63.97-16.73 62.7-16.2 61.8-15.3 60.9-14.4 60.37-13.18 59.84-11.95 59.84-10.5L59.84-10.5Q59.84-9.05 60.37-7.8 60.9-6.55 61.8-5.65 62.7-4.75 63.97-4.23 65.25-3.7 66.75-3.7L66.75-3.7Q68.25-3.7 69.45-4.23 70.65-4.75 71.5-5.68 72.34-6.6 72.8-7.83 73.25-9.05 73.25-10.5ZM77.9-10.4L77.9-10.4Q77.9-8.05 77.09-6.05 76.3-4.05 74.84-2.6 73.4-1.15 71.37-0.33 69.34 0.5 66.95 0.5L66.95 0.5Q65.7 0.5 64.57 0.23 63.45-0.05 62.5-0.53 61.55-1 60.84-1.58 60.15-2.15 59.8-2.75L59.8-2.75Q59.8-2.5 59.82-2.23 59.84-1.95 59.84-1.7L59.84-1.7 59.84 10.05 55.55 10.05 55.55-20.9 59.7-20.9Q59.7-20.3 59.77-19.43 59.84-18.55 59.84-17.85L59.84-17.85Q60.25-18.45 60.92-19.07 61.59-19.7 62.52-20.23 63.45-20.75 64.59-21.1 65.75-21.45 67.15-21.45L67.15-21.45Q69.55-21.45 71.52-20.68 73.5-19.9 74.92-18.48 76.34-17.05 77.12-15 77.9-12.95 77.9-10.4ZM81.09-10.25L81.09-10.25Q81.09-12.55 81.97-14.58 82.84-16.6 84.34-18.13 85.84-19.65 87.82-20.55 89.79-21.45 92.04-21.45L92.04-21.45Q93.54-21.45 94.79-21.08 96.04-20.7 96.94-20.15 97.84-19.6 98.39-19 98.94-18.4 99.14-17.95L99.14-17.95 99.34-20.9 103.44-20.9 103.44 0 99.14 0 99.14-2.65Q98.89-2.25 98.34-1.7 97.79-1.15 96.92-0.68 96.04-0.2 94.84 0.15 93.64 0.5 92.09 0.5L92.09 0.5Q89.69 0.5 87.67-0.38 85.64-1.25 84.19-2.73 82.74-4.2 81.92-6.15 81.09-8.1 81.09-10.25ZM85.39-10.5L85.39-10.5Q85.39-9.05 85.92-7.8 86.44-6.55 87.34-5.65 88.24-4.75 89.49-4.23 90.74-3.7 92.24-3.7L92.24-3.7Q93.74-3.7 95.02-4.23 96.29-4.75 97.22-5.68 98.14-6.6 98.64-7.83 99.14-9.05 99.14-10.5L99.14-10.5Q99.14-11.95 98.64-13.18 98.14-14.4 97.22-15.3 96.29-16.2 95.02-16.73 93.74-17.25 92.24-17.25L92.24-17.25Q90.74-17.25 89.49-16.73 88.24-16.2 87.34-15.3 86.44-14.4 85.92-13.18 85.39-11.95 85.39-10.5ZM109.44 0L109.44-20.9 113.19-20.9Q113.29-19.35 113.37-18.07 113.44-16.8 113.54-15.55L113.54-15.55Q114.69-18.25 116.82-19.85 118.94-21.45 122.04-21.45L122.04-21.45Q125.19-21.45 127.09-19.7 128.99-17.95 129.09-15.2L129.09-15.2 129.09 0 124.79 0 124.79-13.25Q124.69-14.85 123.69-15.98 122.69-17.1 120.54-17.2L120.54-17.2Q119.04-17.2 117.79-16.68 116.54-16.15 115.64-15.25 114.74-14.35 114.22-13.1 113.69-11.85 113.69-10.35L113.69-10.35 113.69 0 109.44 0ZM133.49-10.45L133.49-10.45Q133.49-12.9 134.31-14.93 135.14-16.95 136.59-18.4 138.04-19.85 140.01-20.65 141.99-21.45 144.29-21.45L144.29-21.45Q145.84-21.45 147.06-21.08 148.29-20.7 149.16-20.18 150.04-19.65 150.64-19 151.24-18.35 151.54-17.85L151.54-17.85 151.54-38.85 155.84-38.85 155.84 0 151.54 0 151.54-1.55Q151.54-1.85 151.59-2.23 151.64-2.6 151.64-2.85L151.64-2.85Q151.14-2.25 150.46-1.68 149.79-1.1 148.89-0.6 147.99-0.1 146.81 0.2 145.64 0.5 144.14 0.5L144.14 0.5Q141.64 0.5 139.66-0.38 137.69-1.25 136.31-2.73 134.94-4.2 134.21-6.2 133.49-8.2 133.49-10.45ZM137.79-10.5L137.79-10.5Q137.79-9.05 138.31-7.8 138.84-6.55 139.74-5.65 140.64-4.75 141.89-4.23 143.14-3.7 144.64-3.7L144.64-3.7Q146.14-3.7 147.41-4.23 148.69-4.75 149.61-5.68 150.54-6.6 151.04-7.83 151.54-9.05 151.54-10.5L151.54-10.5Q151.54-11.95 151.04-13.18 150.54-14.4 149.61-15.3 148.69-16.2 147.41-16.73 146.14-17.25 144.64-17.25L144.64-17.25Q143.14-17.25 141.89-16.73 140.64-16.2 139.74-15.3 138.84-14.4 138.31-13.18 137.79-11.95 137.79-10.5ZM195.78-36.25L182.43-11.95 182.43 0 176.93 0 176.93-11.95Q176.58-12.5 175.56-14.35 174.53-16.2 173.16-18.73 171.78-21.25 170.21-24.1 168.63-26.95 167.26-29.48 165.88-32 164.86-33.85 163.83-35.7 163.48-36.25L163.48-36.25 169.68-36.25Q170.13-35.5 171.28-33.38 172.43-31.25 173.83-28.58 175.23-25.9 176.68-23.18 178.13-20.45 179.13-18.5L179.13-18.5 179.68-16.85Q179.88-17.25 180.03-17.68 180.18-18.1 180.33-18.5L180.33-18.5Q181.38-20.45 182.78-23.18 184.18-25.9 185.56-28.58 186.93-31.25 188.06-33.38 189.18-35.5 189.63-36.25L189.63-36.25 195.78-36.25ZM190.58-10.5L190.58-10.5Q190.58-12.75 191.46-14.75 192.33-16.75 193.83-18.23 195.33-19.7 197.36-20.58 199.38-21.45 201.73-21.45L201.73-21.45Q204.08-21.45 206.11-20.58 208.13-19.7 209.61-18.23 211.08-16.75 211.91-14.75 212.73-12.75 212.73-10.5L212.73-10.5Q212.73-8.25 211.91-6.25 211.08-4.25 209.61-2.75 208.13-1.25 206.11-0.38 204.08 0.5 201.68 0.5L201.68 0.5Q199.38 0.5 197.36-0.3 195.33-1.1 193.83-2.55 192.33-4 191.46-6.03 190.58-8.05 190.58-10.5ZM194.83-10.45L194.83-10.45Q194.83-9.05 195.36-7.83 195.88-6.6 196.81-5.68 197.73-4.75 198.96-4.23 200.18-3.7 201.58-3.7L201.58-3.7Q202.98-3.7 204.23-4.23 205.48-4.75 206.41-5.68 207.33-6.6 207.88-7.83 208.43-9.05 208.43-10.45L208.43-10.45Q208.43-11.85 207.88-13.1 207.33-14.35 206.41-15.28 205.48-16.2 204.23-16.73 202.98-17.25 201.58-17.25L201.58-17.25Q200.18-17.25 198.96-16.73 197.73-16.2 196.81-15.28 195.88-14.35 195.36-13.1 194.83-11.85 194.83-10.45ZM236.73-20.9L236.73 0.45 233.13 0.45 232.63-5.35Q231.48-2.8 229.4-1.15 227.33 0.5 224.13 0.5L224.13 0.5Q220.93 0.5 219.05-1.23 217.18-2.95 217.08-5.75L217.08-5.75 217.08-20.9 221.33-20.9 221.33-7.65Q221.43-6.1 222.45-5 223.48-3.9 225.63-3.75L225.63-3.75Q227.13-3.75 228.38-4.28 229.63-4.8 230.53-5.7 231.43-6.6 231.93-7.85 232.43-9.1 232.43-10.6L232.43-10.6 232.43-20.9 236.73-20.9ZM255.18-21.45L254.23-15.95Q252.83-15.95 251.53-15.58 250.23-15.2 249.2-14.45 248.18-13.7 247.58-12.58 246.98-11.45 246.98-10L246.98-10 246.98 0 242.73 0 242.73-20.9 246.48-20.9Q246.58-19.35 246.65-18.07 246.73-16.8 246.83-15.55L246.83-15.55Q247.48-16.9 248.53-18 249.58-19.1 250.78-19.85 251.98-20.6 253.13-21.03 254.28-21.45 255.18-21.45L255.18-21.45ZM270.62 0L265.17 0 265.17-36.25 270.62-36.25 270.62-20.85 288.77-20.85 288.77-36.25 294.27-36.25Q294.27-35.6 294.27-33.83 294.27-32.05 294.27-29.6 294.27-27.15 294.27-24.18 294.27-21.2 294.25-18.13 294.22-15.05 294.22-12.08 294.22-9.1 294.22-6.65 294.22-4.2 294.22-2.43 294.22-0.65 294.22 0L294.22 0 288.77 0 288.77-15.65 270.62-15.65 270.62 0ZM299.27-10.5L299.27-10.5Q299.27-12.75 300.14-14.75 301.02-16.75 302.52-18.23 304.02-19.7 306.04-20.58 308.07-21.45 310.42-21.45L310.42-21.45Q312.77-21.45 314.79-20.58 316.82-19.7 318.29-18.23 319.77-16.75 320.59-14.75 321.42-12.75 321.42-10.5L321.42-10.5Q321.42-8.25 320.59-6.25 319.77-4.25 318.29-2.75 316.82-1.25 314.79-0.38 312.77 0.5 310.37 0.5L310.37 0.5Q308.07 0.5 306.04-0.3 304.02-1.1 302.52-2.55 301.02-4 300.14-6.03 299.27-8.05 299.27-10.5ZM303.52-10.45L303.52-10.45Q303.52-9.05 304.04-7.83 304.57-6.6 305.49-5.68 306.42-4.75 307.64-4.23 308.87-3.7 310.27-3.7L310.27-3.7Q311.67-3.7 312.92-4.23 314.17-4.75 315.09-5.68 316.02-6.6 316.57-7.83 317.12-9.05 317.12-10.45L317.12-10.45Q317.12-11.85 316.57-13.1 316.02-14.35 315.09-15.28 314.17-16.2 312.92-16.73 311.67-17.25 310.27-17.25L310.27-17.25Q308.87-17.25 307.64-16.73 306.42-16.2 305.49-15.28 304.57-14.35 304.04-13.1 303.52-11.85 303.52-10.45ZM338.42-21.45L337.47-15.95Q336.07-15.95 334.77-15.58 333.47-15.2 332.44-14.45 331.42-13.7 330.82-12.58 330.22-11.45 330.22-10L330.22-10 330.22 0 325.97 0 325.97-20.9 329.72-20.9Q329.82-19.35 329.89-18.07 329.97-16.8 330.07-15.55L330.07-15.55Q330.72-16.9 331.77-18 332.82-19.1 334.02-19.85 335.22-20.6 336.37-21.03 337.52-21.45 338.42-21.45L338.42-21.45ZM340.96-28.9L340.96-28.9Q340.96-30.1 341.84-30.9 342.71-31.7 343.71-31.7L343.71-31.7Q344.71-31.7 345.56-30.9 346.41-30.1 346.41-28.9L346.41-28.9Q346.41-27.7 345.56-26.93 344.71-26.15 343.71-26.15L343.71-26.15Q342.71-26.15 341.84-26.93 340.96-27.7 340.96-28.9ZM345.76-20.9L345.76 0 341.51 0 341.51-20.9 345.76-20.9ZM369.21-4.2L369.21 0 349.51 0 361.51-17.25 354.51-17.25Q352.76-17.25 351.61-18.2 350.46-19.15 350.46-20.75L350.46-20.75 350.46-22.9 354.31-22.9 354.31-22.25Q354.31-21.4 354.71-21.15 355.11-20.9 356.01-20.9L356.01-20.9 369.36-20.9 357.71-4.2 369.21-4.2ZM371.91-10.5L371.91-10.5Q371.91-12.75 372.78-14.75 373.66-16.75 375.16-18.23 376.66-19.7 378.68-20.58 380.71-21.45 383.06-21.45L383.06-21.45Q385.41-21.45 387.43-20.58 389.46-19.7 390.93-18.23 392.41-16.75 393.23-14.75 394.06-12.75 394.06-10.5L394.06-10.5Q394.06-8.25 393.23-6.25 392.41-4.25 390.93-2.75 389.46-1.25 387.43-0.38 385.41 0.5 383.01 0.5L383.01 0.5Q380.71 0.5 378.68-0.3 376.66-1.1 375.16-2.55 373.66-4 372.78-6.03 371.91-8.05 371.91-10.5ZM376.16-10.45L376.16-10.45Q376.16-9.05 376.68-7.83 377.21-6.6 378.13-5.68 379.06-4.75 380.28-4.23 381.51-3.7 382.91-3.7L382.91-3.7Q384.31-3.7 385.56-4.23 386.81-4.75 387.73-5.68 388.66-6.6 389.21-7.83 389.76-9.05 389.76-10.45L389.76-10.45Q389.76-11.85 389.21-13.1 388.66-14.35 387.73-15.28 386.81-16.2 385.56-16.73 384.31-17.25 382.91-17.25L382.91-17.25Q381.51-17.25 380.28-16.73 379.06-16.2 378.13-15.28 377.21-14.35 376.68-13.1 376.16-11.85 376.16-10.45ZM398.61 0L398.61-20.9 402.36-20.9Q402.46-19.35 402.53-18.07 402.61-16.8 402.71-15.55L402.71-15.55Q403.86-18.25 405.98-19.85 408.11-21.45 411.21-21.45L411.21-21.45Q414.36-21.45 416.25-19.7 418.16-17.95 418.25-15.2L418.25-15.2 418.25 0 413.96 0 413.96-13.25Q413.86-14.85 412.86-15.98 411.86-17.1 409.71-17.2L409.71-17.2Q408.21-17.2 406.96-16.68 405.71-16.15 404.81-15.25 403.91-14.35 403.38-13.1 402.86-11.85 402.86-10.35L402.86-10.35 402.86 0 398.61 0Z" opacity="1" transform="matrix(1,0,0,1,0,0)" fill="#ffffff" class="undefined-text-1" data-fill-palette-color="secondary" id="text-1"></path></svg></g></svg></g></svg></g></svg></g><g transform="matrix(1,0,0,1,75.54432000000003,0)"><svg viewBox="0 0 244.43135999999998 135.30904314541016" height="135.30904314541016" width="244.43135999999998"><g><svg xmlns="http://www.w3.org/2000/svg" xmlns:xlink="http://www.w3.org/1999/xlink" version="1.1" x="8" y="0" viewBox="0 20.382999420166016 100 59.234004974365234" enable-background="new 0 0 100 100" xml:space="preserve" height="135.30904314541016" width="228.43135999999998" class="icon-icon-0" data-fill-palette-color="accent" id="icon-0"><path d="M74.767 20.383L64.322 38.458 53.881 20.383l-5.986 10.364L41.92 20.383l-8.343 14.437-8.333-14.437L0.138 64.974C0.088 65.23 0 65.477 0 65.733c0 7.672 22.395 13.884 50.005 13.884 27.611 0 49.995-6.212 49.995-13.884 0-0.257-0.088-0.503-0.138-0.76L74.767 20.383z" fill="#ffffff" data-fill-palette-color="accent"></path></svg></g></svg></g><g><rect width="38.935680808119145" height="7.431390494400307" y="126.87765265100984" x="319.97568" fill="#ffffff" data-fill-palette-color="accent"></rect><rect width="38.935680808119145" height="7.431390494400307" y="126.87765265100984" x="36.60863919188088" fill="#ffffff" data-fill-palette-color="accent"></rect><rect width="38.935680808119145" height="7.431390494400307" y="112.01487166220923" x="319.97568" fill="#ffffff" data-fill-palette-color="accent"></rect><rect width="38.935680808119145" height="7.431390494400307" y="112.01487166220923" x="36.60863919188088" fill="#ffffff" data-fill-palette-color="accent"></rect></g></svg></g><defs></defs></svg><rect width="322.3027216162383" height="247.2" fill="none" stroke="none" visibility="hidden"></rect></g></svg></g></svg>